<svg xmlns="http://www.w3.org/2000/svg" width="793.21" height="133.37"><defs><style>.cls-3{fill:#fff}</style></defs><g id="Layer_2" data-name="Layer 2"><g id="Логотип_Госкорпорации_Роскосмос_" data-name="Логотип Госкорпорации &quot;Роскосмос&quot;"><g fill-rule="evenodd"><path d="M100.21 30.37l.86-.24c-42.77 13.28-76.61 36-77.31 52.72-.74 17.88 36.77 22.07 83.76 9.37S193.24 54.73 194 36.85c.38-9.26-9.52-14.85-25.68-16.32 19.76.88 32.13 6.64 32.13 16.92 0 19.59-44.88 48.18-100.22 63.87S0 113.83 0 94.24s44.88-48.18 100.21-63.87" fill="#fff"/><path fill="#f34b54" d="M21.74 133.37L160.67 0l-12.6 104.84-22.97-26.3-103.36 54.83z"/></g><path class="cls-3" d="M297.41 57.27c0 9.58-6.89 18.83-18.82 18.83h-12.11v18.83h-10.77v-56.5h20.18c14.71 0 21.52 7.9 21.52 18.84zm-10.76 0c0-5.3-4.2-8.08-9.41-8.08h-10.76v16.15h10.76c5.21 0 9.41-3.34 9.41-8.07zm77.03 9.41a29.6 29.6 0 11-29.6-29.59 29.64 29.64 0 0129.6 29.59zm-10.76 0a18.83 18.83 0 10-18.84 18.84 18.81 18.81 0 0018.84-18.84zm62.48 13.04l4.12 9.75a28.44 28.44 0 01-18.33 6.81c-16.57 0-30.1-13.29-30.1-29.6s13.53-29.59 30.1-29.59c6.3 0 13.54 2.35 18.33 6.72l-4.12 9.76a20 20 0 00-14-5.72c-10.77 0-19.51 8.41-19.51 18.83s8.74 18.84 19.51 18.84a19.49 19.49 0 0014-5.8zm63.78 15.21h-13.62L444.2 70.21v24.72h-10.76v-56.5h10.76v23.38l20-23.38h13.62l-24.21 27z"/><path class="cls-3" d="M540.61 66.68A29.6 29.6 0 11511 37.09a29.64 29.64 0 0129.61 29.59zm-10.76 0A18.84 18.84 0 10511 85.52a18.8 18.8 0 0018.85-18.84zm62.47 13.04l4.12 9.75a28.42 28.42 0 01-18.33 6.81C561.55 96.28 548 83 548 66.68s13.54-29.59 30.1-29.59c6.31 0 13.54 2.35 18.33 6.72l-4.12 9.76a20 20 0 00-14-5.72c-10.76 0-19.5 8.41-19.5 18.83s8.74 18.84 19.5 18.84a19.49 19.49 0 0014.01-5.8zm80.1 15.21H661l-4.71-37-14.79 37h-5.4l-14.8-37-4.71 37h-11.43l8.07-56.5H624l14.8 36.33 14.8-36.33h10.76zm64.95-28.25a29.6 29.6 0 11-29.59-29.59 29.64 29.64 0 0129.59 29.59zm-10.76 0a18.84 18.84 0 10-18.83 18.84 18.8 18.8 0 0018.83-18.84zm62.48 13.04l4.12 9.75a28.46 28.46 0 01-18.33 6.81c-16.57 0-30.1-13.29-30.1-29.6s13.53-29.59 30.1-29.59c6.3 0 13.53 2.35 18.33 6.72l-4.12 9.76a20 20 0 00-14-5.72c-10.77 0-19.51 8.41-19.51 18.83s8.74 18.84 19.51 18.84a19.5 19.5 0 0014-5.8z"/></g></g></svg>