<svg xmlns="http://www.w3.org/2000/svg" width="199.01" height="42.52" viewBox="0 0 199.01 42.52">
  <defs>
    <style>
      .cls-1 {
        fill: #fff;
      }
    </style>
  </defs>
  <title>logo</title>
  <g id="Layer_2" data-name="Layer 2">
    <g id="Слой_1" data-name="Слой 1">
      <g>
        <path class="cls-1" d="M20.16,21.73a8.83,8.83,0,0,0-15,6v.57a8.85,8.85,0,0,0,8.72,8.55h.26a8.86,8.86,0,0,0,8.69-8.52v-.6A8.83,8.83,0,0,0,20.16,21.73ZM17.43,35.24a7.78,7.78,0,0,1-3.25.78h-.39a7.74,7.74,0,0,1-3.2-.75,7.86,7.86,0,0,1-2.31-1.66,8,8,0,0,1,2.36-1.72A7.89,7.89,0,0,1,14,31.14a8,8,0,0,1,4.65,1.46l.57.45c.14.12.43.42.54.5A8.07,8.07,0,0,1,17.43,35.24ZM22,28.38a7.79,7.79,0,0,1-.54,2.55,8.61,8.61,0,0,1-.5,1.06c-.08.14-.61.92-.62.94-.2-.14-.55-.52-.8-.71a8.27,8.27,0,0,0-.89-.62,8.8,8.8,0,0,0-7.33-.84,8.48,8.48,0,0,0-3.31,2c-.22.21-.2.31-.38.07A8,8,0,0,1,6,28.34v-.6a8,8,0,0,1,16,0Zm5.7,13.83c-.11-.14-.22-.26-.34-.4-.69-.8-1.39-1.59-2.07-2.4-.91-1.07-1.84-2.12-2.76-3.19-.45-.54-.93-1.06-1.38-1.6-.2-.24-.26-.18-.05-.41A10.24,10.24,0,0,0,22,32.93a9.46,9.46,0,0,0,1.38-4.59l4.67,14.13C27.87,42.56,27.8,42.36,27.66,42.21Zm-26.46-1c-.32.38-.65.78-1,1.14S.06,42.2.12,42C.59,40.56,4.49,28.63,4.6,28.5a9.25,9.25,0,0,0,2,5.34c.14.18.38.41.48.56S2,40.29,1.2,41.23ZM14,0h0l7.34,22.22c-.09-.06-.52-.58-.64-.71a8.68,8.68,0,0,0-.7-.65,9.39,9.39,0,0,0-5.86-2.21h-.35a9.31,9.31,0,0,0-4.2,1.09,9.88,9.88,0,0,0-2.28,1.68,8.82,8.82,0,0,1-.63.68Z"/>
        <g>
          <path class="cls-1" d="M48.38,7.13l-.1-.33H43.45l-.11.29c-1.72,4.2-3.77,9.85-5.1,14.05l-.2.62h3.79l.1-.34c.28-.93.61-2,1-3.16h5.46c.43,1.18.87,2.29,1.24,3.2l.11.3h4l-.28-.66C51.94,17.58,49.92,12,48.38,7.13ZM47.27,15H43.93c.63-1.81,1.22-3.44,1.76-4.86C46.16,11.73,46.71,13.42,47.27,15Z"/>
          <path class="cls-1" d="M60.34,6.46c-2.56,0-4.2.5-5.34,1.61s-1.81,3.14-1.81,6.08.57,5,1.8,6.21S57.82,22,60.34,22s4.2-.54,5.33-1.68,1.79-3.23,1.79-6.21C67.46,8.61,65.47,6.46,60.34,6.46Zm0,3.33c2.77,0,3.37.38,3.37,4.4S63,18.7,60.34,18.7,57,18.26,57,14.19,57.56,9.79,60.34,9.79Z"/>
          <path class="cls-1" d="M82.29,13.39a54.68,54.68,0,0,0,4.65-5.85l.53-.74H83.09L83,7a52.65,52.65,0,0,1-4.63,5.86V6.8H74.73v15h3.59v-6.6c2,.31,3.17,1.48,5,6.29l.12.31h4.16l-.24-.64C85.2,15.52,83.81,14.08,82.29,13.39Z"/>
          <path class="cls-1" d="M96.09,12.39H91.67V10h7.44V6.8h-11v15h8.14c2.75,0,4.09-1.52,4.09-4.64S98.88,12.39,96.09,12.39Zm-4.42,3.09h3.87c.27,0,1,0,1,1.6s-.57,1.5-.88,1.5h-4Z"/>
          <path class="cls-1" d="M110.2,14.15c1.71-2.38,3.32-4.66,4.65-6.61l.5-.74H111l-.15.21c-.76,1.14-1.71,2.51-2.83,4.09-1.19-1.59-2.24-3-3.14-4.12l-.14-.18h-4.6l.6.76c1.26,1.59,3,3.94,5,6.65-1.92,2.63-3.81,5.15-5.11,6.78l-.6.77h4.44l.14-.18c1.06-1.34,2.17-2.8,3.34-4.35,1.13,1.58,2.16,3.06,3,4.32l.14.21h4.44l-.51-.74C113.76,19.1,111.89,16.49,110.2,14.15Z"/>
          <path class="cls-1" d="M124.79,7.05c-1.48,2.73-3.22,5.73-5.31,9.14V6.8h-3.56v15h4.21l.14-.22c1.62-2.54,3.32-5.41,5.06-8.55v8.77h3.54V6.8h-4Z"/>
          <path class="cls-1" d="M143,7.07c-1.23,2.53-2.48,5.39-3.47,7.89-1.12-2.74-2.37-5.57-3.5-7.89l-.13-.27h-4.39v15H135V13.1c.91,2.14,1.86,4.56,2.66,6.6l.31.77h2.7l.12-.29c.67-1.64,1.83-4.45,3-7.11v8.69h3.53V6.8h-4.2Z"/>
          <path class="cls-1" d="M161.39,7.07c-1.23,2.53-2.49,5.39-3.47,7.89-1.12-2.74-2.38-5.57-3.51-7.89l-.13-.27H149.9v15h3.5V13.1c.9,2.14,1.86,4.56,2.66,6.6l.31.77h2.7l.12-.29c.67-1.64,1.83-4.45,3-7.11v8.69h3.53V6.8h-4.2Z"/>
          <path class="cls-1" d="M176.52,7.13l-.11-.33h-4.82l-.12.29c-1.72,4.2-3.77,9.85-5.1,14.05l-.19.62H170l.1-.34c.28-.93.62-2,1-3.16h5.46c.43,1.18.88,2.29,1.24,3.2l.12.3h4l-.27-.66C180.07,17.58,178.05,12,176.52,7.13ZM175.41,15h-3.35c.63-1.81,1.22-3.44,1.76-4.86C174.29,11.73,174.85,13.42,175.41,15Z"/>
          <polygon class="cls-1" points="195.44 6.8 195.44 18.42 192.32 18.42 192.32 6.8 188.75 6.8 188.75 18.42 185.62 18.42 185.62 6.8 182.03 6.8 182.03 21.75 199.01 21.75 199.01 6.8 195.44 6.8"/>
        </g>
        <g>
          <path class="cls-1" d="M39.49,34.68V28.84H38v7.74H40c1.14-1.77,2.26-3.71,3.28-5.6v5.6h1.43V28.84H42.91C41.86,30.77,40.69,32.75,39.49,34.68Z"/>
          <path class="cls-1" d="M50.82,33.79c-.65-1.61-1.44-3.44-2.18-4.95h-2v7.74h1.41V30.81c.68,1.49,1.48,3.54,2.08,5.06h1.14c.63-1.52,1.46-3.51,2.16-5.06v5.77h1.43V28.84H53C52.24,30.32,51.43,32.17,50.82,33.79Z"/>
          <polygon class="cls-1" points="56.82 36.58 62.44 36.58 62.44 35.31 58.29 35.31 58.29 33.15 61.25 33.15 61.25 31.89 58.29 31.89 58.29 30.1 62.44 30.1 62.44 28.84 56.82 28.84 56.82 36.58"/>
          <polygon class="cls-1" points="68.49 31.79 65.17 31.79 65.17 28.84 63.71 28.84 63.71 36.58 65.17 36.58 65.17 33.15 68.49 33.15 68.49 36.58 69.93 36.58 69.93 28.84 68.49 28.84 68.49 31.79"/>
          <path class="cls-1" d="M73.33,34.68V28.84H71.89v7.74h1.92c1.13-1.77,2.26-3.71,3.28-5.6v5.6h1.43V28.84H76.75C75.71,30.77,74.53,32.75,73.33,34.68Z"/>
          <path class="cls-1" d="M85.17,28.84c-1,2.31-2.08,5.43-2.82,7.74H83.9c.18-.59.38-1.24.6-1.93h3.39c.25.71.52,1.38.74,1.93h1.62c-.86-2.06-2-5.26-2.78-7.74Zm-.28,4.55c.4-1.16.81-2.31,1.2-3.31h.3c.3,1,.68,2.17,1.08,3.31Z"/>
          <path class="cls-1" d="M91.61,35c-.64,0-.85.1-.85.78s.21.87.85.87.89-.14.89-.87S92.29,35,91.61,35Z"/>
          <path class="cls-1" d="M98.37,33.79c-.65-1.61-1.45-3.44-2.18-4.95h-2v7.74H95.6V30.81c.68,1.49,1.48,3.54,2.08,5.06h1.14c.62-1.52,1.46-3.51,2.16-5.06v5.77h1.43V28.84h-1.9C99.79,30.32,99,32.17,98.37,33.79Z"/>
          <path class="cls-1" d="M105,35c-.65,0-.86.1-.86.78s.21.87.86.87.88-.14.88-.87S105.63,35,105,35Z"/>
          <path class="cls-1" d="M111.93,34.68V28.84h-1.44v7.74h1.92c1.14-1.77,2.26-3.71,3.28-5.6v5.6h1.43V28.84h-1.76C114.31,30.77,113.13,32.75,111.93,34.68Z"/>
          <path class="cls-1" d="M122.59,30a5.66,5.66,0,0,1,1.65.25l.31-1.29a9,9,0,0,0-2.22-.29c-2.45,0-3.63.82-3.63,4s1.18,4.1,3.63,4.1a9,9,0,0,0,2.22-.28l-.31-1.31a6,6,0,0,1-1.65.24c-1.69,0-2.32-.36-2.32-2.74S120.9,30,122.59,30Z"/>
          <path class="cls-1" d="M127.39,28.84c-.94,2.31-2.08,5.43-2.81,7.74h1.54c.18-.59.38-1.24.6-1.93h3.39c.26.71.52,1.38.75,1.93h1.62c-.87-2.06-2-5.26-2.79-7.74Zm-.28,4.55c.4-1.16.81-2.31,1.2-3.31h.3c.3,1,.68,2.17,1.08,3.31Z"/>
          <polygon class="cls-1" points="133.25 36.58 138.87 36.58 138.87 35.31 134.71 35.31 134.71 33.15 137.68 33.15 137.68 31.89 134.71 31.89 134.71 30.1 138.87 30.1 138.87 28.84 133.25 28.84 133.25 36.58"/>
          <path class="cls-1" d="M144.59,32.48c1.39-.12,1.61-.76,1.61-1.79s-.35-1.85-1.9-1.85h-4.17v7.74h4.24c1.24,0,2-.6,2-2.12C146.37,33.3,146.07,32.55,144.59,32.48Zm-3-2.4H144c.5,0,.67.29.67.91s-.18.94-.67.94H141.6Zm2.45,5.27H141.6V33.11H144c.53,0,.79.42.79,1.15S144.58,35.35,144.05,35.35Z"/>
          <path class="cls-1" d="M152.07,28.84h-2.3c-1,2.31-2.08,5.43-2.81,7.74h1.54c.18-.59.38-1.24.6-1.93h3.39c.26.71.52,1.38.74,1.93h1.63C154,34.52,152.86,31.32,152.07,28.84Zm-2.58,4.55c.4-1.16.81-2.31,1.2-3.31h.3c.3,1,.68,2.17,1.08,3.31Z"/>
        </g>
      </g>
    </g>
  </g>
</svg>
