<svg xmlns="http://www.w3.org/2000/svg" width="2126.55" height="299.32" viewBox="0 0 2126.55 299.32">
  <defs>
    <style>
      .cls-1 {
        fill: #fff;
      }

      .cls-2 {
        fill: #f24942;
      }
    </style>
  </defs>
  <title>logo_1</title>
  <g id="Layer_2" data-name="Layer 2">
    <g id="Layer_1-2" data-name="Layer 1">
      <g>
        <path class="cls-1" d="M530.6,286H519.48V242.58C511.54,257.24,502.83,272.33,494,286H479.12v-60.1h11.21V271.3c9.31-15,18.45-30.36,26.56-45.36H530.6Zm67.82-60.1h14.74V286H602V241.29c-5.43,12-11.9,27.42-16.73,39.23h-8.88c-4.65-11.81-10.86-27.68-16.12-39.23V286H549.36v-60.1h15.52c5.69,11.73,11.9,25.95,16.9,38.46C586.52,251.81,592.81,237.5,598.42,225.94Zm77.05,0v9.83H643.23v13.88h23v9.75h-23v16.81h32.24V286H631.85v-60.1Zm24.7,60.1H688.79v-60.1h11.38v22.94h25.7V225.94h11.21V286H725.87V259.4h-25.7Zm107.05,0H796.1V242.58c-7.93,14.66-16.64,29.75-25.44,43.46H755.75v-60.1H767V271.3c9.31-15,18.45-30.36,26.55-45.36h13.71Zm79.66-15h-26.3c-1.73,5.34-3.28,10.43-4.66,15H844c5.61-17.93,14.4-42.16,21.73-60.1H883.6c6.12,19.32,14.92,44.06,21.64,60.1H892.65C890.93,281.73,888.86,276.55,886.88,271Zm-14-35.44c-3,7.76-6.21,16.64-9.32,25.69h20c-3.11-8.88-6-17.93-8.36-25.69ZM951.33,286c-8.62-22.94-14.66-27.59-25.27-28.54V286H914.68v-60.1h11.38v29c5.09-4.91,14.75-16,23.54-29h13.8c-11,15.52-19,24.49-22,27,7.16,2.41,13.19,6.29,23.46,33.11Zm58.59-15h-26.3c-1.73,5.34-3.28,10.43-4.66,15h-11.9c5.61-17.93,14.4-42.16,21.73-60.1h17.85c6.12,19.32,14.92,44.06,21.64,60.1h-12.59C1014,281.73,1011.9,276.55,1009.92,271ZM996,235.6c-3,7.76-6.21,16.64-9.31,25.69h20c-3.1-8.88-6-17.93-8.36-25.69Zm92.65,40.18h10.69l-1.81,23.54h-10V286h-45.1v13.28h-10l-1.9-23.54H1040c5.08-14.31,8.19-30.78,9-49.84h39.67Zm-11.3-40h-17.93c-.95,13.28-2.94,27.25-7.07,40h25Zm76.7-9.83v9.83h-32.24v13.88h23v9.75h-23v16.81H1154V286h-43.62v-60.1Zm62.38,0h14.75V286H1220V241.29c-5.43,12-11.89,27.42-16.72,39.23h-8.88c-4.66-11.81-10.87-27.68-16.13-39.23V286h-11v-60.1h15.52c5.69,11.73,11.9,25.95,16.9,38.46C1204.48,251.81,1210.78,237.5,1216.38,225.94Zm84.9,60.1h-11.12V242.58c-7.93,14.66-16.64,29.75-25.43,43.46h-14.92v-60.1H1261V271.3c9.31-15,18.45-30.36,26.56-45.36h13.7Zm55.41,0c-8.62-22.94-14.66-27.59-25.26-28.54V286H1320v-60.1h11.39v29c5.08-4.91,14.74-16,23.54-29h13.79c-11,15.52-19,24.49-22,27,7.16,2.41,13.2,6.29,23.46,33.11Zm58.59-15H1389c-1.72,5.34-3.28,10.43-4.66,15h-11.9c5.61-17.93,14.4-42.16,21.73-60.1H1412c6.12,19.32,14.92,44.06,21.64,60.1h-12.59C1419.33,281.73,1417.26,276.55,1415.28,271Zm-14-35.44c-3,7.76-6.21,16.64-9.31,25.69h20c-3.1-8.88-6-17.93-8.36-25.69Zm116.55,34c0,11.81-5.86,16.47-15.52,16.47h-32.85v-60.1h32.33c12,0,14.75,5.61,14.75,14.4,0,7.93-1.73,12.93-12.51,13.88C1515.53,254.74,1517.86,260.6,1517.86,269.57Zm-37-19.66h18.45c3.8,0,5.18-2.76,5.18-7.24,0-4.83-1.3-7.07-5.18-7.07h-18.45Zm19,26.56c4.14,0,5.78-3,5.78-8.45,0-5.69-2-8.88-6.12-8.88h-18.63v17.33Zm40.83,3.28c0,5.69-1.64,6.72-6.9,6.72-5,0-6.64-1-6.64-6.72,0-5.26,1.64-6,6.64-6C1539,273.71,1540.67,274.49,1540.67,279.75Zm27.95,6.29h-11.38v-60.1h48.29V286h-11.21V235.77h-25.7Zm60.14-6.29c0,5.69-1.64,6.72-6.9,6.72-5,0-6.64-1-6.64-6.72,0-5.26,1.64-6,6.64-6C1627.12,273.71,1628.76,274.49,1628.76,279.75Zm24,6.29v-60.1h40.61v9.83h-29.23V286Zm61.16-50.27A208.12,208.12,0,0,1,1703.31,286h-12c5.86-17.85,11.21-38.2,12.16-60.1h40.35V286h-11.21V235.77Zm82.3-9.83h12.85a423.75,423.75,0,0,1-29.75,60.1H1765a157.14,157.14,0,0,0,10-15.26c-4-11.21-14.14-32.94-21.38-44.84h13.54a255.1,255.1,0,0,1,14.91,32.51C1787.43,247.58,1793,235.17,1796.22,225.94Zm91.44,60.1h-68.81v-60.1h11.39v49.84h17.41V225.94H1859v49.84h17.41V225.94h11.3Zm55.33,0c-8.62-22.94-14.66-27.59-25.26-28.54V286h-11.38v-60.1h11.38v29c5.08-4.91,14.74-16,23.54-29h13.79c-11,15.52-19,24.49-22,27,7.16,2.41,13.2,6.29,23.46,33.11Zm78.25-30.61c0,24.83-9.49,31.82-28.54,31.82s-28.63-7-28.63-31.82c0-24.4,9.57-31,28.63-31S2021.24,231,2021.24,255.43Zm-12.07.17c0-18.19-3.28-20.86-16.47-20.86s-16.47,2.67-16.47,20.86S1979.51,277,1992.7,277,2009.17,273.71,2009.17,255.6Z"/>
        <path class="cls-1" d="M803.47,143.31c-24.34,0-28.4-5.25-28.4-37.71s4.06-37.7,28.4-37.7c24.1,0,28.16,5.25,28.16,37.7s-4.06,37.71-28.16,37.71m0-100.23c-44.63,0-58,14.08-58,62.52s13.36,62.53,58,62.53c44.39,0,57.75-14.08,57.75-62.53s-13.36-62.52-57.75-62.52"/>
        <polygon class="cls-1" points="559.19 92 507.64 92 507.64 45.47 479.24 45.47 479.24 165.74 507.64 165.74 507.64 118.02 559.19 118.02 559.19 165.74 587.59 165.74 587.59 45.47 559.19 45.47 559.19 92"/>
        <polygon class="cls-1" points="726.62 165.74 726.62 45.47 617.81 45.47 617.81 165.74 647.21 165.74 647.21 71.93 697.21 71.93 697.21 165.74 726.62 165.74"/>
        <path class="cls-1" d="M927.31,154.31c0,6,2.39,9.06,9.07,10.73,7.16,1.68,19.81,3.11,32.46,3.11,44.86,0,58.23-14.09,58.23-62.53s-13.37-62.53-58.23-62.53a165.17,165.17,0,0,0-32.46,3.11c-6.45,1.43-9.07,4.53-9.07,10.73V69.59s19.33-1.68,39.14-1.68c21.24,0,28.88,3.35,30.55,24.58H935.43v24.82h61.81c-1.68,22.44-9.07,26-30.79,26-19.81,0-39.14-1.68-39.14-1.68Zm264.19,11.45h94.75V140.94H1219.9V117.31h59.19V92.49H1219.9V70.3h66.35V45.48H1191.5Zm124.34,0H1344V130.92h27.93c35.55,0,47-10.27,47-43,0-32.22-11.46-42.48-47-42.48h-56.09ZM1344,106.1V70.3h27.93c13.12,0,17.65,4.29,17.65,17.66,0,13.6-4.53,18.14-17.65,18.14Zm96.42,59.66h28.4V71.49h60.85v-26h-89.25Zm242,0h27.69V81l37.46,55.13h3.34l37.24-52.74v82.33h27.92V45.48h-22.67c-8.12,0-11,1.91-15.52,8.59l-27.69,39.86L1723,53.59c-4-6.2-7.16-8.11-15.27-8.11h-25.3Zm151.78,0h29.59l8.83-23.62h51.32l8.83,23.62h30.31l-42-106.67c-4.3-11-8.36-13.61-20.77-13.61h-18.38Zm47.5-48.45,16.7-44.63,16.47,44.63Zm99.52,48.45h145.34V45.48h-28.41v94.27h-30.07V45.48h-28.39v94.27H2009.6V45.48h-28.39Zm-440.08-60.14c0,48.44,13.37,62.53,58,62.53,44.39,0,57.76-14.09,57.76-62.53s-13.37-62.53-57.76-62.53c-44.62,0-58,14.09-58,62.53m29.59,0c0-32.46,4.06-37.71,28.4-37.71,24.1,0,28.16,5.25,28.16,37.71s-4.06,37.71-28.16,37.71c-24.34,0-28.4-5.25-28.4-37.71"/>
        <polygon class="cls-1" points="1052.84 165.76 1081.24 165.76 1081.24 118.03 1132.79 118.03 1132.79 165.76 1161.19 165.76 1161.19 45.48 1132.79 45.48 1132.79 92.02 1081.24 92.02 1081.24 45.48 1052.84 45.48 1052.84 165.76"/>
        <g>
          <path class="cls-1" d="M0,106.67V5.37S163.64-14.89,282.08,23.29C127,32.64,0,106.67,0,106.67Z"/>
          <path class="cls-1" d="M534.12,7.75C320.88,5.47,70.3,108.74,8.61,146c-9.07,5.47-2.52,13.14,5.34,9.87C240.9,60.91,399.31,30.53,534.12,7.75"/>
          <path class="cls-2" d="M351.33,51C279,136.08,45.16,173.3,26.13,170.25S8,178.55,20.8,180.12c49.5,6.08,252.86,0,327.49-50.87,48.47-33,39.6-55.44,3-78.22"/>
        </g>
      </g>
    </g>
  </g>
</svg>
