<svg xmlns="http://www.w3.org/2000/svg" width="793.21" height="133.37" viewBox="0 0 793.21 133.37">
  <defs>
    <style>
      .cls-1, .cls-3 {
        fill: #fff;
      }

      .cls-1, .cls-2 {
        fill-rule: evenodd;
      }

      .cls-2 {
        fill: #f34b54;
      }
    </style>
  </defs>
  <title>logo_2</title>
  <g id="Layer_2" data-name="Layer 2">
    <g id="Логотип_Госкорпорации_Роскосмос_" data-name="Логотип Госкорпорации &quot;Роскосмос&quot;">
      <g>
        <g>
          <path class="cls-1" d="M100.21,30.37l.86-.24c-42.77,13.28-76.61,36-77.31,52.72-.74,17.88,36.77,22.07,83.76,9.37S193.24,54.73,194,36.85c.38-9.26-9.52-14.85-25.68-16.32,19.76.88,32.13,6.64,32.13,16.92,0,19.59-44.88,48.18-100.22,63.87S0,113.83,0,94.24,44.88,46.06,100.21,30.37"/>
          <polygon class="cls-2" points="21.74 133.37 160.67 0 148.07 104.84 125.1 78.54 21.74 133.37"/>
        </g>
        <g>
          <path class="cls-3" d="M297.41,57.27c0,9.58-6.89,18.83-18.82,18.83H266.48V94.93H255.71V38.43h20.18C290.6,38.43,297.41,46.33,297.41,57.27Zm-10.76,0c0-5.3-4.2-8.08-9.41-8.08H266.48V65.34h10.76C282.45,65.34,286.65,62,286.65,57.27Z"/>
          <path class="cls-3" d="M363.68,66.68a29.6,29.6,0,1,1-29.6-29.59A29.64,29.64,0,0,1,363.68,66.68Zm-10.76,0a18.83,18.83,0,1,0-18.84,18.84A18.81,18.81,0,0,0,352.92,66.68Z"/>
          <path class="cls-3" d="M415.4,79.72l4.12,9.75a28.44,28.44,0,0,1-18.33,6.81c-16.57,0-30.1-13.29-30.1-29.6s13.53-29.59,30.1-29.59c6.3,0,13.54,2.35,18.33,6.72l-4.12,9.76a20,20,0,0,0-14-5.72c-10.77,0-19.51,8.41-19.51,18.83s8.74,18.84,19.51,18.84A19.49,19.49,0,0,0,415.4,79.72Z"/>
          <path class="cls-3" d="M479.18,94.93H465.56L444.2,70.21V94.93H433.44V38.43H444.2V61.81l20-23.38h13.62l-24.21,27Z"/>
          <path class="cls-3" d="M540.61,66.68A29.6,29.6,0,1,1,511,37.09,29.64,29.64,0,0,1,540.61,66.68Zm-10.76,0A18.84,18.84,0,1,0,511,85.52,18.8,18.8,0,0,0,529.85,66.68Z"/>
          <path class="cls-3" d="M592.32,79.72l4.12,9.75a28.42,28.42,0,0,1-18.33,6.81C561.55,96.28,548,83,548,66.68s13.54-29.59,30.1-29.59c6.31,0,13.54,2.35,18.33,6.72l-4.12,9.76a20,20,0,0,0-14-5.72c-10.76,0-19.5,8.41-19.5,18.83s8.74,18.84,19.5,18.84A19.49,19.49,0,0,0,592.32,79.72Z"/>
          <path class="cls-3" d="M672.42,94.93H661l-4.71-37-14.79,37H636.1l-14.8-37-4.71,37H605.16l8.07-56.5H624l14.8,36.33,14.8-36.33h10.76Z"/>
          <path class="cls-3" d="M737.37,66.68a29.6,29.6,0,1,1-29.59-29.59A29.64,29.64,0,0,1,737.37,66.68Zm-10.76,0a18.84,18.84,0,1,0-18.83,18.84A18.8,18.8,0,0,0,726.61,66.68Z"/>
          <path class="cls-3" d="M789.09,79.72l4.12,9.75a28.46,28.46,0,0,1-18.33,6.81c-16.57,0-30.1-13.29-30.1-29.6s13.53-29.59,30.1-29.59c6.3,0,13.53,2.35,18.33,6.72l-4.12,9.76a20,20,0,0,0-14-5.72c-10.77,0-19.51,8.41-19.51,18.83s8.74,18.84,19.51,18.84A19.5,19.5,0,0,0,789.09,79.72Z"/>
        </g>
      </g>
    </g>
  </g>
</svg>
