<?xml version="1.0" encoding="utf-8"?>
<!-- Generator: Adobe Illustrator 22.1.0, SVG Export Plug-In . SVG Version: 6.00 Build 0)  -->
<svg version="1.1" id="Layer_1" xmlns="http://www.w3.org/2000/svg" xmlns:xlink="http://www.w3.org/1999/xlink" x="0px" y="0px"
	 viewBox="0 0 76.7 76.7" style="enable-background:new 0 0 76.7 76.7;" xml:space="preserve">
<style type="text/css">
	.st0{fill:#F24942;}
</style>
<circle class="st0" cx="38.6" cy="38.6" r="38.1"/>
<title>button_arrow_circled</title>
<path class="st0" d="M68.8,56.6C58.8,73.6,37,79.2,20.1,69.2S-2.4,37.5,7.6,20.6S39.3-2,56.2,8c4.7,2.8,8.7,6.6,11.7,11.1h3
	C60.1,1,36.7-4.8,18.7,6S-5.3,40.1,5.5,58.1s34.2,23.9,52.2,13.1c5.9-3.5,10.7-8.6,14-14.6H68.8z"/>
<polygon class="st0" points="37.3,44.8 44.1,38.6 37.3,32.4 36,33.9 40.1,37.6 27.7,37.6 27.7,39.6 40.1,39.6 36,43.3 "/>
</svg>
