<svg xmlns="http://www.w3.org/2000/svg" width="199.01" height="42.52"><defs><style>.cls-1{fill:#fff}</style></defs><g id="Layer_2" data-name="Layer 2"><g id="Слой_1" data-name="Слой 1"><path class="cls-1" d="M20.16 21.73a8.83 8.83 0 00-15 6v.57a8.85 8.85 0 008.72 8.55h.26a8.86 8.86 0 008.69-8.52v-.6a8.83 8.83 0 00-2.67-6zm-2.73 13.51a7.78 7.78 0 01-3.25.78h-.39a7.74 7.74 0 01-3.2-.75 7.86 7.86 0 01-2.31-1.66 8 8 0 012.36-1.72 7.89 7.89 0 013.36-.75 8 8 0 014.65 1.46l.57.45c.14.12.43.42.54.5a8.07 8.07 0 01-2.33 1.69zM22 28.38a7.79 7.79 0 01-.54 2.55 8.61 8.61 0 01-.5 1.06c-.08.14-.61.92-.62.94-.2-.14-.55-.52-.8-.71a8.27 8.27 0 00-.89-.62 8.8 8.8 0 00-7.33-.84 8.48 8.48 0 00-3.31 2c-.22.21-.2.31-.38.07A8 8 0 016 28.34v-.6a8 8 0 0116 0zm5.7 13.83c-.11-.14-.22-.26-.34-.4-.69-.8-1.39-1.59-2.07-2.4-.91-1.07-1.84-2.12-2.76-3.19-.45-.54-.93-1.06-1.38-1.6-.2-.24-.26-.18-.05-.41a10.24 10.24 0 00.9-1.28 9.46 9.46 0 001.38-4.59l4.67 14.13c-.18.09-.25-.11-.39-.26zm-26.46-1c-.32.38-.65.78-1 1.14S.06 42.2.12 42c.47-1.44 4.37-13.37 4.48-13.5a9.25 9.25 0 002 5.34c.14.18.38.41.48.56S2 40.29 1.2 41.23zM14 0l7.34 22.22c-.09-.06-.52-.58-.64-.71a8.68 8.68 0 00-.7-.65 9.39 9.39 0 00-5.86-2.21h-.35a9.31 9.31 0 00-4.2 1.09 9.88 9.88 0 00-2.28 1.68 8.82 8.82 0 01-.63.68zm34.38 7.13l-.1-.33h-4.83l-.11.29c-1.72 4.2-3.77 9.85-5.1 14.05l-.2.62h3.79l.1-.34c.28-.93.61-2 1-3.16h5.46c.43 1.18.87 2.29 1.24 3.2l.11.3h4l-.28-.66c-1.52-3.52-3.54-9.1-5.08-13.97zM47.27 15h-3.34c.63-1.81 1.22-3.44 1.76-4.86A98.18 98.18 0 0047.27 15zm13.07-8.54c-2.56 0-4.2.5-5.34 1.61s-1.81 3.14-1.81 6.08.57 5 1.8 6.21S57.82 22 60.34 22s4.2-.54 5.33-1.68 1.79-3.23 1.79-6.21c0-5.5-1.99-7.65-7.12-7.65zm0 3.33c2.77 0 3.37.38 3.37 4.4S63 18.7 60.34 18.7 57 18.26 57 14.19s.56-4.4 3.34-4.4zm21.95 3.6a54.68 54.68 0 004.65-5.85l.53-.74h-4.38L83 7a52.65 52.65 0 01-4.63 5.86V6.8h-3.64v15h3.59v-6.6c2 .31 3.17 1.48 5 6.29l.12.31h4.16l-.24-.64c-2.16-5.64-3.55-7.08-5.07-7.77zm13.8-1h-4.42V10h7.44V6.8h-11v15h8.14c2.75 0 4.09-1.52 4.09-4.64s-1.46-4.77-4.25-4.77zm-4.42 3.09h3.87c.27 0 1 0 1 1.6s-.57 1.5-.88 1.5h-4z"/><path class="cls-1" d="M110.2 14.15c1.71-2.38 3.32-4.66 4.65-6.61l.5-.74H111l-.15.21c-.76 1.14-1.71 2.51-2.83 4.09-1.19-1.59-2.24-3-3.14-4.12l-.14-.18h-4.6l.6.76c1.26 1.59 3 3.94 5 6.65-1.92 2.63-3.81 5.15-5.11 6.78l-.6.77h4.44l.14-.18c1.06-1.34 2.17-2.8 3.34-4.35 1.13 1.58 2.16 3.06 3 4.32l.14.21h4.44l-.51-.74c-1.26-1.92-3.13-4.53-4.82-6.87zm14.59-7.1c-1.48 2.73-3.22 5.73-5.31 9.14V6.8h-3.56v15h4.21l.14-.22c1.62-2.54 3.32-5.41 5.06-8.55v8.77h3.54v-15h-4zm18.21.02c-1.23 2.53-2.48 5.39-3.47 7.89-1.12-2.74-2.37-5.57-3.5-7.89l-.13-.27h-4.39v15H135v-8.7c.91 2.14 1.86 4.56 2.66 6.6l.31.77h2.7l.12-.29c.67-1.64 1.83-4.45 3-7.11v8.69h3.53V6.8h-4.2zm18.39 0a114.27 114.27 0 00-3.47 7.89c-1.12-2.74-2.38-5.57-3.51-7.89l-.13-.27h-4.38v15h3.5v-8.7c.9 2.14 1.86 4.56 2.66 6.6l.31.77h2.7l.12-.29c.67-1.64 1.83-4.45 3-7.11v8.69h3.53V6.8h-4.2zm15.13.06l-.11-.33h-4.82l-.12.29c-1.72 4.2-3.77 9.85-5.1 14.05l-.19.62H170l.1-.34c.28-.93.62-2 1-3.16h5.46c.43 1.18.88 2.29 1.24 3.2l.12.3h4l-.27-.66c-1.58-3.52-3.6-9.1-5.13-13.97zM175.41 15h-3.35c.63-1.81 1.22-3.44 1.76-4.86.47 1.59 1.03 3.28 1.59 4.86zm20.03-8.2v11.62h-3.12V6.8h-3.57v11.62h-3.13V6.8h-3.59v14.95h16.98V6.8h-3.57zM39.49 34.68v-5.84H38v7.74h2c1.14-1.77 2.26-3.71 3.28-5.6v5.6h1.43v-7.74h-1.8c-1.05 1.93-2.22 3.91-3.42 5.84zm11.33-.89c-.65-1.61-1.44-3.44-2.18-4.95h-2v7.74h1.41v-5.77c.68 1.49 1.48 3.54 2.08 5.06h1.14c.63-1.52 1.46-3.51 2.16-5.06v5.77h1.43v-7.74H53c-.76 1.48-1.57 3.33-2.18 4.95zm6 2.79h5.62v-1.27h-4.15v-2.16h2.96v-1.26h-2.96V30.1h4.15v-1.26h-5.62v7.74zm11.67-4.79h-3.32v-2.95h-1.46v7.74h1.46v-3.43h3.32v3.43h1.44v-7.74h-1.44v2.95zm4.84 2.89v-5.84h-1.44v7.74h1.92c1.13-1.77 2.26-3.71 3.28-5.6v5.6h1.43v-7.74h-1.77c-1.04 1.93-2.22 3.91-3.42 5.84zm11.84-5.84c-1 2.31-2.08 5.43-2.82 7.74h1.55c.18-.59.38-1.24.6-1.93h3.39c.25.71.52 1.38.74 1.93h1.62c-.86-2.06-2-5.26-2.78-7.74zm-.28 4.55c.4-1.16.81-2.31 1.2-3.31h.3c.3 1 .68 2.17 1.08 3.31zM91.61 35c-.64 0-.85.1-.85.78s.21.87.85.87.89-.14.89-.87-.21-.78-.89-.78zm6.76-1.21c-.65-1.61-1.45-3.44-2.18-4.95h-2v7.74h1.41v-5.77c.68 1.49 1.48 3.54 2.08 5.06h1.14c.62-1.52 1.46-3.51 2.16-5.06v5.77h1.43v-7.74h-1.9c-.72 1.48-1.51 3.33-2.14 4.95zM105 35c-.65 0-.86.1-.86.78s.21.87.86.87.88-.14.88-.87-.25-.78-.88-.78zm6.93-.32v-5.84h-1.44v7.74h1.92c1.14-1.77 2.26-3.71 3.28-5.6v5.6h1.43v-7.74h-1.76c-1.05 1.93-2.23 3.91-3.43 5.84zM122.59 30a5.66 5.66 0 011.65.25l.31-1.29a9 9 0 00-2.22-.29c-2.45 0-3.63.82-3.63 4s1.18 4.1 3.63 4.1a9 9 0 002.22-.28l-.31-1.31a6 6 0 01-1.65.24c-1.69 0-2.32-.36-2.32-2.74s.63-2.68 2.32-2.68zm4.8-1.16c-.94 2.31-2.08 5.43-2.81 7.74h1.54c.18-.59.38-1.24.6-1.93h3.39c.26.71.52 1.38.75 1.93h1.62c-.87-2.06-2-5.26-2.79-7.74zm-.28 4.55c.4-1.16.81-2.31 1.2-3.31h.3c.3 1 .68 2.17 1.08 3.31zm6.14 3.19h5.62v-1.27h-4.16v-2.16h2.97v-1.26h-2.97V30.1h4.16v-1.26h-5.62v7.74zm11.34-4.1c1.39-.12 1.61-.76 1.61-1.79s-.35-1.85-1.9-1.85h-4.17v7.74h4.24c1.24 0 2-.6 2-2.12 0-1.16-.3-1.91-1.78-1.98zm-3-2.4H144c.5 0 .67.29.67.91s-.18.94-.67.94h-2.4zm2.45 5.27h-2.44v-2.24h2.4c.53 0 .79.42.79 1.15s-.21 1.09-.74 1.09zm8.03-6.51h-2.3c-1 2.31-2.08 5.43-2.81 7.74h1.54c.18-.59.38-1.24.6-1.93h3.39c.26.71.52 1.38.74 1.93h1.63c-.86-2.06-2-5.26-2.79-7.74zm-2.58 4.55c.4-1.16.81-2.31 1.2-3.31h.3c.3 1 .68 2.17 1.08 3.31z"/></g></g></svg>